<svg width="70" height="43" viewBox="0 0 70 43" fill="none" xmlns="http://www.w3.org/2000/svg">
<rect width="70" height="43" rx="21.5" fill="#F3603B"/>
<path d="M29.944 29.224C28.4933 29.224 27.4107 28.7493 26.696 27.8C25.992 26.8507 25.64 25.5973 25.64 24.04V22.728C25.64 21.1707 25.992 19.9227 26.696 18.984C27.4107 18.0453 28.4933 17.576 29.944 17.576C31.4053 17.576 32.488 18.0507 33.192 19C33.9067 19.9387 34.264 21.1813 34.264 22.728V24.04C34.264 25.5973 33.9067 26.8507 33.192 27.8C32.4773 28.7493 31.3947 29.224 29.944 29.224ZM29.944 27.304C30.584 27.304 31.048 27.0373 31.336 26.504C31.6347 25.96 31.784 25.1653 31.784 24.12V22.632C31.784 21.5973 31.6347 20.8187 31.336 20.296C31.048 19.7627 30.584 19.496 29.944 19.496C29.3147 19.496 28.8507 19.7627 28.552 20.296C28.264 20.8187 28.12 21.5973 28.12 22.632V24.12C28.12 25.1653 28.264 25.96 28.552 26.504C28.8507 27.0373 29.3147 27.304 29.944 27.304ZM39.7375 29.144C38.4575 29.144 37.4708 28.8293 36.7775 28.2C36.0842 27.5707 35.6735 26.7707 35.5455 25.8H37.7855C37.9028 26.2373 38.1268 26.5787 38.4575 26.824C38.7882 27.0693 39.2095 27.192 39.7215 27.192C40.3082 27.192 40.7615 27.0427 41.0815 26.744C41.4122 26.4347 41.5775 26.0453 41.5775 25.576C41.5775 25.0747 41.4015 24.6853 41.0495 24.408C40.7082 24.12 40.2708 23.976 39.7375 23.976H38.7295V22.296H39.7535C40.2335 22.296 40.6282 22.1733 40.9375 21.928C41.2468 21.672 41.4015 21.3147 41.4015 20.856C41.4015 20.3973 41.2415 20.0293 40.9215 19.752C40.6122 19.4747 40.2015 19.336 39.6895 19.336C39.1988 19.336 38.8042 19.4587 38.5055 19.704C38.2175 19.9493 38.0308 20.2853 37.9455 20.712H35.7695C35.9082 19.8053 36.2922 19.048 36.9215 18.44C37.5508 17.8213 38.4788 17.512 39.7055 17.512C40.6015 17.512 41.3428 17.6773 41.9295 18.008C42.5162 18.328 42.9375 18.7387 43.1935 19.24C43.4602 19.7413 43.5935 20.2533 43.5935 20.776C43.5935 21.3093 43.4655 21.752 43.2095 22.104C42.9642 22.456 42.6975 22.7173 42.4095 22.888C42.1322 23.0587 41.9562 23.144 41.8815 23.144V23.24C42.1055 23.3147 42.3348 23.416 42.5695 23.544C42.8042 23.6613 43.0548 23.9067 43.3215 24.28C43.5882 24.6533 43.7215 25.1547 43.7215 25.784C43.7215 26.3813 43.5775 26.936 43.2895 27.448C43.0015 27.96 42.5588 28.3707 41.9615 28.68C41.3642 28.9893 40.6228 29.144 39.7375 29.144Z" fill="white"/>
</svg>
