<svg width="69" height="43" viewBox="0 0 69 43" fill="none" xmlns="http://www.w3.org/2000/svg">
<rect width="69" height="43" rx="21.5" fill="#F3603B"/>
<path d="M29.944 29.224C28.4933 29.224 27.4107 28.7493 26.696 27.8C25.992 26.8507 25.64 25.5973 25.64 24.04V22.728C25.64 21.1707 25.992 19.9227 26.696 18.984C27.4107 18.0453 28.4933 17.576 29.944 17.576C31.4053 17.576 32.488 18.0507 33.192 19C33.9067 19.9387 34.264 21.1813 34.264 22.728V24.04C34.264 25.5973 33.9067 26.8507 33.192 27.8C32.4773 28.7493 31.3947 29.224 29.944 29.224ZM29.944 27.304C30.584 27.304 31.048 27.0373 31.336 26.504C31.6347 25.96 31.784 25.1653 31.784 24.12V22.632C31.784 21.5973 31.6347 20.8187 31.336 20.296C31.048 19.7627 30.584 19.496 29.944 19.496C29.3147 19.496 28.8507 19.7627 28.552 20.296C28.264 20.8187 28.12 21.5973 28.12 22.632V24.12C28.12 25.1653 28.264 25.96 28.552 26.504C28.8507 27.0373 29.3147 27.304 29.944 27.304ZM42.8415 27.064V29H36.1535V27.064H38.5535V20.44H38.4895L36.1375 22.584V19.944L38.5055 17.8H40.6815V27.064H42.8415Z" fill="white"/>
</svg>
