<svg width="70" height="43" viewBox="0 0 70 43" fill="none" xmlns="http://www.w3.org/2000/svg">
<rect width="70" height="43" rx="21.5" fill="#F3603B"/>
<path d="M29.944 29.224C28.4933 29.224 27.4107 28.7493 26.696 27.8C25.992 26.8507 25.64 25.5973 25.64 24.04V22.728C25.64 21.1707 25.992 19.9227 26.696 18.984C27.4107 18.0453 28.4933 17.576 29.944 17.576C31.4053 17.576 32.488 18.0507 33.192 19C33.9067 19.9387 34.264 21.1813 34.264 22.728V24.04C34.264 25.5973 33.9067 26.8507 33.192 27.8C32.4773 28.7493 31.3947 29.224 29.944 29.224ZM29.944 27.304C30.584 27.304 31.048 27.0373 31.336 26.504C31.6347 25.96 31.784 25.1653 31.784 24.12V22.632C31.784 21.5973 31.6347 20.8187 31.336 20.296C31.048 19.7627 30.584 19.496 29.944 19.496C29.3147 19.496 28.8507 19.7627 28.552 20.296C28.264 20.8187 28.12 21.5973 28.12 22.632V24.12C28.12 25.1653 28.264 25.96 28.552 26.504C28.8507 27.0373 29.3147 27.304 29.944 27.304ZM35.8815 27.112L37.6575 25.56L38.4095 24.936C39.1135 24.36 39.6628 23.8907 40.0575 23.528C40.4522 23.1653 40.7775 22.7813 41.0335 22.376C41.2895 21.96 41.4175 21.5387 41.4175 21.112C41.4175 20.6533 41.2788 20.264 41.0015 19.944C40.7242 19.624 40.3028 19.464 39.7375 19.464C39.0442 19.464 38.5802 19.6667 38.3455 20.072C38.1215 20.4667 38.0095 20.888 38.0095 21.336V21.528H35.8335C35.8335 20.728 35.9882 20.0293 36.2975 19.432C36.6175 18.8347 37.0655 18.376 37.6415 18.056C38.2282 17.7253 38.9162 17.56 39.7055 17.56C40.5055 17.56 41.1882 17.7147 41.7535 18.024C42.3295 18.3227 42.7615 18.7333 43.0495 19.256C43.3482 19.7787 43.4975 20.3547 43.4975 20.984C43.4975 21.6133 43.3642 22.1893 43.0975 22.712C42.8308 23.224 42.5108 23.672 42.1375 24.056C41.7642 24.4293 41.2842 24.8613 40.6975 25.352L40.4415 25.576L38.7935 26.984V27.064H43.5935V29H35.8975L35.8815 27.112Z" fill="white"/>
</svg>
